{
  "accessors": [
    {
      "bufferView": 2,
      "componentType": 5126,
      "count": 18033,
      "max": [
        6.47406005859375,
        1.5731099843978882,
        7.992199897766113
      ],
      "min": [
        -3.4866600036621094,
        -1.4493199586868286,
        -0.058490000665187836
      ],
      "type": "VEC3"
    },
    {
      "bufferView": 2,
      "byteOffset": 216396,
      "componentType": 5126,
      "count": 18033,
      "max": [
        0.999975860118866,
        0.9999601244926453,
        0.999983012676239
      ],
      "min": [
        -0.9999764561653137,
        -0.9999814629554749,
        -0.9999930262565613
      ],
      "type": "VEC3"
    },
    {
      "bufferView": 1,
      "componentType": 5126,
      "count": 18033,
      "max": [
        0.9548400044441223,
        0.988569974899292
      ],
      "min": [
        0.011470000259578228,
        7.999999797903001e-05
      ],
      "type": "VEC2"
    },
    {
      "bufferView": 0,
      "componentType": 5125,
      "count": 69468,
      "type": "SCALAR"
    }
  ],
  "asset": {
    "extras": {
      "author": "omarme37 (https://sketchfab.com/omarme37)",
      "license": "CC-BY-4.0 (http://creativecommons.org/licenses/by/4.0/)",
      "source": "https://sketchfab.com/3d-models/camel-44ef2ea4b50a49e395e5e3ebbdc99f98",
      "title": "camel"
    },
    "generator": "Sketchfab-12.68.0",
    "version": "2.0"
  },
  "bufferViews": [
    {
      "buffer": 0,
      "byteLength": 277872,
      "name": "floatBufferViews",
      "target": 34963
    },
    {
      "buffer": 0,
      "byteLength": 144264,
      "byteOffset": 277872,
      "byteStride": 8,
      "name": "floatBufferViews",
      "target": 34962
    },
    {
      "buffer": 0,
      "byteLength": 432792,
      "byteOffset": 422136,
      "byteStride": 12,
      "name": "floatBufferViews",
      "target": 34962
    }
  ],
  "buffers": [
    {
      "byteLength": 854928,
      "uri": "scene.bin"
    }
  ],
  "images": [
    {
      "uri": "textures/Material.004_baseColor.png"
    }
  ],
  "materials": [
    {
      "doubleSided": true,
      "name": "Material.004",
      "pbrMetallicRoughness": {
        "baseColorTexture": {
          "index": 0
        },
        "metallicFactor": 0.08354302172390919,
        "roughnessFactor": 0.5112159776987519
      }
    }
  ],
  "meshes": [
    {
      "name": "c_0",
      "primitives": [
        {
          "attributes": {
            "NORMAL": 1,
            "POSITION": 0,
            "TEXCOORD_0": 2
          },
          "indices": 3,
          "material": 0,
          "mode": 4
        }
      ]
    }
  ],
  "nodes": [
    {
      "children": [
        1
      ],
      "matrix": [
        0.2866820991039276,
        0.0,
        0.0,
        0.0,
        0.0,
        6.365621343461028e-17,
        -0.2866820991039276,
        0.0,
        0.0,
        0.2866820991039276,
        6.365621343461028e-17,
        0.0,
        0.0,
        0.0,
        0.0,
        1.0
      ],
      "name": "Sketchfab_model"
    },
    {
      "children": [
        2,
        4
      ],
      "name": "Root"
    },
    {
      "children": [
        3
      ],
      "name": "c"
    },
    {
      "mesh": 0,
      "name": "c_0"
    },
    {
      "children": [
        5
      ],
      "matrix": [
        -0.29086000000000006,
        0.9551700000000001,
        -0.05519000000000001,
        0.0,
        -0.7711,
        -0.19988000000000003,
        0.6045200000000001,
        0.0,
        0.5663900000000001,
        0.21839000000000003,
        0.7946700000000001,
        0.0,
        9.768099999999999,
        1.00545,
        5.903860000000001,
        1.0
      ],
      "name": "Lamp"
    },
    {
      "name": "Lamp"
    }
  ],
  "samplers": [
    {
      "magFilter": 9729,
      "minFilter": 9987,
      "wrapS": 10497,
      "wrapT": 10497
    }
  ],
  "scene": 0,
  "scenes": [
    {
      "name": "Sketchfab_Scene",
      "nodes": [
        0
      ]
    }
  ],
  "textures": [
    {
      "sampler": 0,
      "source": 0
    }
  ]
}
