{
  "accessors": [
    {
      "bufferView": 2,
      "componentType": 5126,
      "count": 557,
      "max": [91.325088500976562, 91.736549377441406, 83.8924560546875],
      "min": [-80.751594543457031, -222.63671875, -77.602394104003906],
      "type": "VEC3"
    },
    {
      "bufferView": 2,
      "byteOffset": 6684,
      "componentType": 5126,
      "count": 557,
      "max": [0.99768316745758057, 0.99690258502960205, 0.99937587976455688],
      "min": [-0.99688482284545898, -0.99967557191848755, -0.99980312585830688],
      "type": "VEC3"
    },
    {
      "bufferView": 1,
      "componentType": 5125,
      "count": 3330,
      "max": [556],
      "min": [0],
      "type": "SCALAR"
    },
    {
      "bufferView": 4,
      "componentType": 5126,
      "count": 14,
      "max": [
        1, 0.0061032967641949654, 0.0077393208630383015, 0,
        0.0003297515504527837, 1, 0.0074952356517314911, 0,
        0.0098563339561223984, 0.003821411170065403, 1, 0, 0.18464642763137817,
        0.72375655174255371, 1.7179520130157471, 1
      ],
      "min": [
        -0.0096055138856172562, -0.0073935757391154766, -0.0087584815919399261,
        0, -0.0024333507753908634, -0.0099145704880356789, 0, 0,
        -0.0098933828994631767, -0.006543327122926712, -0.0075411121360957623,
        0, -0.2657439112663269, -1.1821931600570679, -0.67181885242462158, 1
      ],
      "type": "MAT4"
    },
    {
      "bufferView": 0,
      "componentType": 5123,
      "count": 557,
      "max": [12, 12, 12, 12],
      "min": [1, 1, 1, 1],
      "type": "VEC4"
    },
    {
      "bufferView": 3,
      "componentType": 5126,
      "count": 557,
      "max": [1, 0.48849910497665405, 0.31471744179725647, 0.24194221198558807],
      "min": [0.25493887066841125, 0, 0, 0],
      "type": "VEC4"
    },
    {
      "bufferView": 5,
      "componentType": 5126,
      "count": 31,
      "max": [4.125],
      "min": [0],
      "type": "SCALAR"
    },
    {
      "bufferView": 6,
      "componentType": 5126,
      "count": 31,
      "max": [
        1.0259101346221655e-9, 0.89479857683181763, -8.9858070984050187e-10
      ],
      "min": [
        1.0259099125775606e-9, 0.89479857683181763, -8.9858082086280433e-10
      ],
      "type": "VEC3"
    },
    {
      "bufferView": 5,
      "byteOffset": 124,
      "componentType": 5126,
      "count": 198,
      "max": [4.125],
      "min": [0],
      "type": "SCALAR"
    },
    {
      "bufferView": 7,
      "componentType": 5126,
      "count": 198,
      "max": [
        0.93145656585693359, 0.020759860053658485, 0.042947281152009964,
        0.58502727746963501
      ],
      "min": [
        -0.86472159624099731, -0.0064280154183506966, -0.011658803559839725,
        -0.4980100691318512
      ],
      "type": "VEC4"
    },
    {
      "bufferView": 5,
      "byteOffset": 916,
      "componentType": 5126,
      "count": 31,
      "max": [4.125],
      "min": [0],
      "type": "SCALAR"
    },
    {
      "bufferView": 6,
      "byteOffset": 372,
      "componentType": 5126,
      "count": 31,
      "max": [
        1.0259101346221655e-9, 0.89479857683181763, -8.9858070984050187e-10
      ],
      "min": [
        1.0259099125775606e-9, 0.89479857683181763, -8.9858082086280433e-10
      ],
      "type": "VEC3"
    },
    {
      "bufferView": 5,
      "byteOffset": 1040,
      "componentType": 5126,
      "count": 196,
      "max": [4.125],
      "min": [0],
      "type": "SCALAR"
    },
    {
      "bufferView": 7,
      "byteOffset": 3168,
      "componentType": 5126,
      "count": 196,
      "max": [
        -0.36048045754432678, 0.46376100182533264, 0.70741468667984009,
        0.40151992440223694
      ],
      "min": [
        -0.60422360897064209, 0.33125963807106018, 0.67337304353713989,
        0.26433846354484558
      ],
      "type": "VEC4"
    },
    {
      "bufferView": 5,
      "byteOffset": 1824,
      "componentType": 5126,
      "count": 31,
      "max": [4.125],
      "min": [0],
      "type": "SCALAR"
    },
    {
      "bufferView": 6,
      "byteOffset": 744,
      "componentType": 5126,
      "count": 31,
      "max": [
        1.0259101346221655e-9, 0.89479857683181763, -8.9858070984050187e-10
      ],
      "min": [
        1.0259099125775606e-9, 0.89479857683181763, -8.9858082086280433e-10
      ],
      "type": "VEC3"
    },
    {
      "bufferView": 5,
      "byteOffset": 1948,
      "componentType": 5126,
      "count": 198,
      "max": [4.125],
      "min": [0],
      "type": "SCALAR"
    },
    {
      "bufferView": 7,
      "byteOffset": 6304,
      "componentType": 5126,
      "count": 198,
      "max": [
        0.30264222621917725, 0.45567017793655396, 0.940590500831604,
        -0.13192263245582581
      ],
      "min": [
        0.19199316203594208, 0.22520315647125244, 0.79497224092483521,
        -0.26257643103599548
      ],
      "type": "VEC4"
    },
    {
      "bufferView": 5,
      "byteOffset": 2740,
      "componentType": 5126,
      "count": 197,
      "max": [4.125],
      "min": [0],
      "type": "SCALAR"
    },
    {
      "bufferView": 7,
      "byteOffset": 9472,
      "componentType": 5126,
      "count": 197,
      "max": [
        0.71687906980514526, 0.03186248242855072, 0.039075516164302826,
        0.74518054723739624
      ],
      "min": [
        0.66569328308105469, -0.041792161762714386, -0.024749115109443665,
        0.69498211145401001
      ],
      "type": "VEC4"
    },
    {
      "bufferView": 5,
      "byteOffset": 3528,
      "componentType": 5126,
      "count": 197,
      "max": [4.125],
      "min": [0],
      "type": "SCALAR"
    },
    {
      "bufferView": 7,
      "byteOffset": 12624,
      "componentType": 5126,
      "count": 197,
      "max": [
        -0.077858030796051025, -0.41604682803153992, 0.30015233159065247,
        0.90131300687789917
      ],
      "min": [
        -0.11515989899635315, -0.43063071370124817, 0.091735802590847015,
        0.84352737665176392
      ],
      "type": "VEC4"
    },
    {
      "bufferView": 5,
      "byteOffset": 4316,
      "componentType": 5126,
      "count": 197,
      "max": [4.125],
      "min": [0],
      "type": "SCALAR"
    },
    {
      "bufferView": 7,
      "byteOffset": 15776,
      "componentType": 5126,
      "count": 197,
      "max": [
        -0.30521559715270996, -0.44092699885368347, 0.71102446317672729,
        0.45484697818756104
      ],
      "min": [
        -0.33852818608283997, -0.53259885311126709, 0.64414680004119873,
        0.43221753835678101
      ],
      "type": "VEC4"
    },
    {
      "bufferView": 5,
      "byteOffset": 5104,
      "componentType": 5126,
      "count": 198,
      "max": [4.125],
      "min": [0],
      "type": "SCALAR"
    },
    {
      "bufferView": 7,
      "byteOffset": 18928,
      "componentType": 5126,
      "count": 198,
      "max": [
        0.17467260360717773, 0.96598339080810547, -0.064436078071594238,
        0.18184091150760651
      ],
      "min": [
        -0.00034219570807181299, 0.77933847904205322, -0.62527596950531006,
        -0.040760289877653122
      ],
      "type": "VEC4"
    },
    {
      "bufferView": 5,
      "byteOffset": 5896,
      "componentType": 5126,
      "count": 198,
      "max": [4.125],
      "min": [0],
      "type": "SCALAR"
    },
    {
      "bufferView": 7,
      "byteOffset": 22096,
      "componentType": 5126,
      "count": 198,
      "max": [
        0.37934666872024536, 0.51398462057113647, 0.6638990044593811,
        0.58003002405166626
      ],
      "min": [
        -0.36406797170639038, -0.5406222939491272, -0.68805134296417236,
        -0.49819251894950867
      ],
      "type": "VEC4"
    }
  ],
  "animations": [
    {
      "channels": [
        {
          "sampler": 0,
          "target": {
            "node": 9,
            "path": "translation"
          }
        },
        {
          "sampler": 1,
          "target": {
            "node": 9,
            "path": "rotation"
          }
        },
        {
          "sampler": 2,
          "target": {
            "node": 11,
            "path": "translation"
          }
        },
        {
          "sampler": 3,
          "target": {
            "node": 11,
            "path": "rotation"
          }
        },
        {
          "sampler": 4,
          "target": {
            "node": 13,
            "path": "translation"
          }
        },
        {
          "sampler": 5,
          "target": {
            "node": 13,
            "path": "rotation"
          }
        },
        {
          "sampler": 6,
          "target": {
            "node": 8,
            "path": "rotation"
          }
        },
        {
          "sampler": 7,
          "target": {
            "node": 16,
            "path": "rotation"
          }
        },
        {
          "sampler": 8,
          "target": {
            "node": 15,
            "path": "rotation"
          }
        },
        {
          "sampler": 9,
          "target": {
            "node": 19,
            "path": "rotation"
          }
        },
        {
          "sampler": 10,
          "target": {
            "node": 18,
            "path": "rotation"
          }
        }
      ],
      "name": "Armature|ArmatureAction",
      "samplers": [
        {
          "input": 6,
          "interpolation": "LINEAR",
          "output": 7
        },
        {
          "input": 8,
          "interpolation": "LINEAR",
          "output": 9
        },
        {
          "input": 10,
          "interpolation": "LINEAR",
          "output": 11
        },
        {
          "input": 12,
          "interpolation": "LINEAR",
          "output": 13
        },
        {
          "input": 14,
          "interpolation": "LINEAR",
          "output": 15
        },
        {
          "input": 16,
          "interpolation": "LINEAR",
          "output": 17
        },
        {
          "input": 18,
          "interpolation": "LINEAR",
          "output": 19
        },
        {
          "input": 20,
          "interpolation": "LINEAR",
          "output": 21
        },
        {
          "input": 22,
          "interpolation": "LINEAR",
          "output": 23
        },
        {
          "input": 24,
          "interpolation": "LINEAR",
          "output": 25
        },
        {
          "input": 26,
          "interpolation": "LINEAR",
          "output": 27
        }
      ]
    }
  ],
  "asset": {
    "extras": {
      "author": "ricksticky (https://sketchfab.com/ricksticky)",
      "license": "CC-BY-4.0 (http://creativecommons.org/licenses/by/4.0/)",
      "source": "https://sketchfab.com/3d-models/simple-jellyfish-f77876d8297846eeb23c4ad82dbebb97",
      "title": "Simple Jellyfish"
    },
    "generator": "Sketchfab-6.84.0",
    "version": "2.0"
  },
  "bufferViews": [
    {
      "buffer": 0,
      "byteLength": 4456,
      "byteOffset": 0,
      "byteStride": 8,
      "name": "shortBufferViews",
      "target": 34962
    },
    {
      "buffer": 0,
      "byteLength": 13320,
      "byteOffset": 4456,
      "name": "floatBufferViews",
      "target": 34963
    },
    {
      "buffer": 0,
      "byteLength": 13368,
      "byteOffset": 17776,
      "byteStride": 12,
      "name": "floatBufferViews",
      "target": 34962
    },
    {
      "buffer": 0,
      "byteLength": 8912,
      "byteOffset": 31144,
      "byteStride": 16,
      "name": "floatBufferViews",
      "target": 34962
    },
    {
      "buffer": 0,
      "byteLength": 896,
      "byteOffset": 40056,
      "byteStride": 64,
      "name": "floatBufferViews"
    },
    {
      "buffer": 0,
      "byteLength": 6688,
      "byteOffset": 40952,
      "name": "floatBufferViews"
    },
    {
      "buffer": 0,
      "byteLength": 1116,
      "byteOffset": 47640,
      "byteStride": 12,
      "name": "floatBufferViews"
    },
    {
      "buffer": 0,
      "byteLength": 25264,
      "byteOffset": 48756,
      "byteStride": 16,
      "name": "floatBufferViews"
    }
  ],
  "buffers": [
    {
      "byteLength": 74020,
      "uri": "scene.bin"
    }
  ],
  "extensionsRequired": ["KHR_materials_pbrSpecularGlossiness"],
  "extensionsUsed": ["KHR_materials_pbrSpecularGlossiness"],
  "materials": [
    {
      "alphaMode": "BLEND",
      "doubleSided": true,
      "emissiveFactor": [
        0.0018137525853379353, 0.66133004726474764, 0.87520907921948532
      ],
      "extensions": {
        "KHR_materials_pbrSpecularGlossiness": {
          "diffuseFactor": [
            0.052516160973346389, 0.089845418137057903, 0.19227916986100624,
            0.39699616543082306
          ],
          "glossinessFactor": 0.96928290433661879,
          "specularFactor": [
            0.0074612817098928053, 0.0074612817098928053, 0.0074612817098928053
          ]
        }
      },
      "name": "Scene_-_Root"
    }
  ],
  "meshes": [
    {
      "name": "Group34460__0",
      "primitives": [
        {
          "attributes": {
            "JOINTS_0": 4,
            "NORMAL": 1,
            "POSITION": 0,
            "WEIGHTS_0": 5
          },
          "indices": 2,
          "material": 0,
          "mode": 4
        }
      ]
    }
  ],
  "nodes": [
    {
      "children": [1],
      "name": "RootNode (gltf orientation matrix)",
      "rotation": [-0.70710678118654746, -0, -0, 0.70710678118654757]
    },
    {
      "children": [2],
      "name": "RootNode (model correction matrix)"
    },
    {
      "children": [3],
      "matrix": [1, 0, 0, 0, 0, 0, 1, 0, 0, -1, 0, 0, 0, 0, 0, 1],
      "name": "1c184666151e4f70b93148e3d0073f9d.fbx"
    },
    {
      "children": [4],
      "name": ""
    },
    {
      "children": [5, 23],
      "name": "RootNode"
    },
    {
      "children": [6],
      "name": "Armature",
      "rotation": [-0.7071068286895752, 0, 0, 0.70710670948028564],
      "scale": [100, 100, 100],
      "translation": [0, -2.3853540420532227, 2.8789281845092773]
    },
    {
      "children": [7, 22, 21],
      "name": ""
    },
    {
      "children": [8, 15, 18],
      "name": "_rootJoint"
    },
    {
      "children": [9, 11, 13],
      "name": "Bone_00",
      "rotation": [
        0.69697052240371704, -0.010904191993176937, 0.012439936399459839,
        0.71690893173217773
      ],
      "scale": [1, 0.99999994039535522, 0.99999988079071045]
    },
    {
      "children": [10],
      "name": "Bone.001_01",
      "rotation": [
        0.93145656585693359, 0.0029184278100728989, 0.030241182073950768,
        -0.36258184909820557
      ],
      "scale": [0.99999994039535522, 1, 0.99999982118606567],
      "translation": [
        1.0259100235998631e-9, 0.89479857683181763, -8.985807653516531e-10
      ]
    },
    {
      "name": "Bone.001_end_010",
      "rotation": [
        -8.3266726846886741e-17, -3.4694469519536142e-18,
        -1.3877787807814457e-17, 1
      ],
      "translation": [-1.7347234759768071e-18, 1.0650181770324707, 0]
    },
    {
      "children": [12],
      "name": "Bone.002_02",
      "rotation": [
        -0.60422360897064209, 0.33130621910095215, 0.67337304353713989,
        0.26780363917350769
      ],
      "scale": [1.0000001192092896, 1.0000001192092896, 0.99999994039535522],
      "translation": [
        1.0259100235998631e-9, 0.89479857683181763, -8.985807653516531e-10
      ]
    },
    {
      "name": "Bone.002_end_08",
      "rotation": [
        -1.8214596497756474e-17, -1.7347234759768071e-18,
        1.3877787807814457e-17, 1
      ],
      "translation": [0, 0.96166932582855225, -1.1102230246251565e-16]
    },
    {
      "children": [14],
      "name": "Bone.003_03",
      "rotation": [
        0.19199317693710327, 0.22520318627357483, 0.94054490327835083,
        -0.16672632098197937
      ],
      "scale": [1, 1, 1.0000001192092896],
      "translation": [
        1.0259100235998631e-9, 0.89479857683181763, -8.985807653516531e-10
      ]
    },
    {
      "name": "Bone.003_end_011",
      "rotation": [
        -2.7755575615628914e-17, -2.7755575615628914e-17,
        2.7755575615628914e-17, 1
      ],
      "translation": [0, 1.0174235105514526, 0]
    },
    {
      "children": [16],
      "name": "Bone.004_04",
      "rotation": [
        -0.32511001825332642, -0.49501654505729675, 0.67350119352340698,
        0.44233274459838867
      ],
      "scale": [0.99999988079071045, 0.99999982118606567, 0.99999988079071045]
    },
    {
      "children": [17],
      "name": "Bone.005_05",
      "rotation": [
        -0.077858030796051025, -0.41613608598709106, 0.091735802590847015,
        0.90130650997161865
      ],
      "scale": [1, 1.0000001192092896, 1],
      "translation": [
        1.2887390710147884e-8, 1.189374566078186, 2.9802322387695312e-8
      ]
    },
    {
      "name": "Bone.005_end_012",
      "rotation": [
        -1.3877787807814457e-17, -2.7755575615628914e-17,
        3.4694469519536142e-18, 1
      ],
      "translation": [
        -5.5511151231257827e-17, 1.2088257074356079, -5.5511151231257827e-17
      ]
    },
    {
      "children": [19],
      "name": "Bone.006_06",
      "rotation": [
        -0.28127461671829224, 0.3335740864276886, -0.68787938356399536,
        0.58003008365631104
      ],
      "scale": [0.99999994039535522, 0.99999988079071045, 0.99999994039535522]
    },
    {
      "children": [20],
      "name": "Bone.007_07",
      "rotation": [
        -0.00034215470077469945, 0.77933847904205322, -0.62527596950531006,
        -0.040760241448879242
      ],
      "scale": [1, 0.99999964237213135, 1],
      "translation": [
        1.0950913065244094e-8, 1.7415038347244263, -5.9604644775390625e-8
      ]
    },
    {
      "name": "Bone.007_end_09",
      "rotation": [6.9388939039072284e-17, 0, 0, 1],
      "translation": [
        -1.3877787807814457e-17, 1.4473395347595215, 2.2204460492503131e-16
      ]
    },
    {
      "matrix": [
        100.0000007584655, -6.8274392250877716e-9, 6.6490812855590767e-9, 0,
        6.8274383929413498e-9, 100.00000423697642, 1.6087029172773274e-5, 0,
        -6.6490825313168209e-9, -1.6087028969870689e-5, 100.00000297569856, 0,
        -6.4364555352192099e-10, 7.6859771436232904e-8, 6.8800095398557914e-8, 1
      ],
      "name": ""
    },
    {
      "mesh": 0,
      "name": "",
      "skin": 0
    },
    {
      "name": "Group34460",
      "rotation": [8.1460335366045911e-8, 0, 0, 1],
      "scale": [100, 100, 100]
    }
  ],
  "scene": 0,
  "scenes": [
    {
      "name": "OSG_Scene",
      "nodes": [0]
    }
  ],
  "skins": [
    {
      "inverseBindMatrices": 3,
      "joints": [7, 8, 9, 10, 11, 12, 13, 14, 15, 16, 17, 18, 19, 20],
      "skeleton": 7
    }
  ]
}
