{
  "accessors": [
    {
      "bufferView": 2,
      "componentType": 5126,
      "count": 65532,
      "max": [
        -0.01701471582055092,
        0.09186140447854996,
        0.17167404294013977
      ],
      "min": [
        -0.1531200408935547,
        -0.019340096041560173,
        0.12479451298713684
      ],
      "type": "VEC3"
    },
    {
      "bufferView": 2,
      "byteOffset": 786384,
      "componentType": 5126,
      "count": 65532,
      "max": [
        0.9998294115066528,
        0.9993017315864563,
        0.9999959468841553
      ],
      "min": [
        -0.9999813437461853,
        -0.9999910593032837,
        -0.9988387227058411
      ],
      "type": "VEC3"
    },
    {
      "bufferView": 1,
      "componentType": 5126,
      "count": 65532,
      "max": [
        0.998678982257843,
        0.9995620250701904
      ],
      "min": [
        0.009971999563276768,
        0.05044800043106079
      ],
      "type": "VEC2"
    },
    {
      "bufferView": 0,
      "componentType": 5125,
      "count": 347847,
      "type": "SCALAR"
    },
    {
      "bufferView": 2,
      "byteOffset": 1572768,
      "componentType": 5126,
      "count": 65532,
      "max": [
        -0.021213116124272346,
        0.07068055123090744,
        0.18725939095020294
      ],
      "min": [
        -0.16880467534065247,
        -0.02738725207746029,
        0.12246737629175186
      ],
      "type": "VEC3"
    },
    {
      "bufferView": 2,
      "byteOffset": 2359152,
      "componentType": 5126,
      "count": 65532,
      "max": [
        0.9999977946281433,
        0.999947190284729,
        0.9999986290931702
      ],
      "min": [
        -0.9998897910118103,
        -0.9999910593032837,
        -0.9881631731987
      ],
      "type": "VEC3"
    },
    {
      "bufferView": 1,
      "byteOffset": 524256,
      "componentType": 5126,
      "count": 65532,
      "max": [
        0.9999300241470337,
        1.0
      ],
      "min": [
        0.03441999852657318,
        0.0031419992446899414
      ],
      "type": "VEC2"
    },
    {
      "bufferView": 0,
      "byteOffset": 1391388,
      "componentType": 5125,
      "count": 323664,
      "type": "SCALAR"
    },
    {
      "bufferView": 2,
      "byteOffset": 3145536,
      "componentType": 5126,
      "count": 65532,
      "max": [
        -0.027687489986419678,
        0.08803115785121918,
        0.2641676366329193
      ],
      "min": [
        -0.16880467534065247,
        -0.02849850431084633,
        0.12371061742305756
      ],
      "type": "VEC3"
    },
    {
      "bufferView": 2,
      "byteOffset": 3931920,
      "componentType": 5126,
      "count": 65532,
      "max": [
        0.9999977946281433,
        0.999584436416626,
        0.9999992847442627
      ],
      "min": [
        -0.9995573163032532,
        -0.9999678134918213,
        -0.9986105561256409
      ],
      "type": "VEC3"
    },
    {
      "bufferView": 1,
      "byteOffset": 1048512,
      "componentType": 5126,
      "count": 65532,
      "max": [
        0.9998890161514282,
        0.9965530037879944
      ],
      "min": [
        0.0005230000242590904,
        0.003135979175567627
      ],
      "type": "VEC2"
    },
    {
      "bufferView": 0,
      "byteOffset": 2686044,
      "componentType": 5125,
      "count": 290508,
      "type": "SCALAR"
    },
    {
      "bufferView": 2,
      "byteOffset": 4718304,
      "componentType": 5126,
      "count": 65532,
      "max": [
        -0.08653032779693604,
        0.062343891710042953,
        0.3128477931022644
      ],
      "min": [
        -0.16934290528297424,
        -0.04114031419157982,
        0.19434116780757904
      ],
      "type": "VEC3"
    },
    {
      "bufferView": 2,
      "byteOffset": 5504688,
      "componentType": 5126,
      "count": 65532,
      "max": [
        0.9999880790710449,
        0.9997817873954773,
        0.9999780654907227
      ],
      "min": [
        -0.9981985092163086,
        -0.9997380971908569,
        -0.9976384043693542
      ],
      "type": "VEC3"
    },
    {
      "bufferView": 1,
      "byteOffset": 1572768,
      "componentType": 5126,
      "count": 65532,
      "max": [
        1.0,
        0.9861800074577332
      ],
      "min": [
        0.0003640000068116933,
        0.011260986328125
      ],
      "type": "VEC2"
    },
    {
      "bufferView": 0,
      "byteOffset": 3848076,
      "componentType": 5125,
      "count": 355401,
      "type": "SCALAR"
    },
    {
      "bufferView": 2,
      "byteOffset": 6291072,
      "componentType": 5126,
      "count": 65532,
      "max": [
        -0.12951163947582245,
        0.06775983422994614,
        0.49612271785736084
      ],
      "min": [
        -0.24548135697841644,
        -0.05225691571831703,
        0.2628266513347626
      ],
      "type": "VEC3"
    },
    {
      "bufferView": 2,
      "byteOffset": 7077456,
      "componentType": 5126,
      "count": 65532,
      "max": [
        0.9999919533729553,
        0.999912679195404,
        0.9999732971191406
      ],
      "min": [
        -0.9995192289352417,
        -0.9997380971908569,
        -0.9998775124549866
      ],
      "type": "VEC3"
    },
    {
      "bufferView": 1,
      "byteOffset": 2097024,
      "componentType": 5126,
      "count": 65532,
      "max": [
        0.9553279876708984,
        0.9861800074577332
      ],
      "min": [
        0.10398200154304504,
        0.015833020210266113
      ],
      "type": "VEC2"
    },
    {
      "bufferView": 0,
      "byteOffset": 5269680,
      "componentType": 5125,
      "count": 337005,
      "type": "SCALAR"
    },
    {
      "bufferView": 2,
      "byteOffset": 7863840,
      "componentType": 5126,
      "count": 65532,
      "max": [
        -0.17427223920822144,
        0.04603595659136772,
        0.4936591684818268
      ],
      "min": [
        -0.2435159832239151,
        -0.0650094747543335,
        0.3753982484340668
      ],
      "type": "VEC3"
    },
    {
      "bufferView": 2,
      "byteOffset": 8650224,
      "componentType": 5126,
      "count": 65532,
      "max": [
        0.9999476075172424,
        0.9999922513961792,
        0.9999620914459229
      ],
      "min": [
        -0.9818467497825623,
        -0.9999819993972778,
        -0.9999728798866272
      ],
      "type": "VEC3"
    },
    {
      "bufferView": 1,
      "byteOffset": 2621280,
      "componentType": 5126,
      "count": 65532,
      "max": [
        0.7251610159873962,
        0.7603009939193726
      ],
      "min": [
        0.26481398940086365,
        0.18274998664855957
      ],
      "type": "VEC2"
    },
    {
      "bufferView": 0,
      "byteOffset": 6617700,
      "componentType": 5125,
      "count": 326502,
      "type": "SCALAR"
    },
    {
      "bufferView": 2,
      "byteOffset": 9436608,
      "componentType": 5126,
      "count": 65532,
      "max": [
        -0.09752485901117325,
        0.03343091532588005,
        0.49678483605384827
      ],
      "min": [
        -0.25760307908058167,
        -0.06379670649766922,
        0.20555199682712555
      ],
      "type": "VEC3"
    },
    {
      "bufferView": 2,
      "byteOffset": 10222992,
      "componentType": 5126,
      "count": 65532,
      "max": [
        0.9999966025352478,
        0.999996542930603,
        0.9999556541442871
      ],
      "min": [
        -0.9998676776885986,
        -0.9999819993972778,
        -0.9999114871025085
      ],
      "type": "VEC3"
    },
    {
      "bufferView": 1,
      "byteOffset": 3145536,
      "componentType": 5126,
      "count": 65532,
      "max": [
        1.0,
        0.8821939826011658
      ],
      "min": [
        0.0,
        0.01981198787689209
      ],
      "type": "VEC2"
    },
    {
      "bufferView": 0,
      "byteOffset": 7923708,
      "componentType": 5125,
      "count": 336474,
      "type": "SCALAR"
    },
    {
      "bufferView": 2,
      "byteOffset": 11009376,
      "componentType": 5126,
      "count": 65532,
      "max": [
        -0.15249250829219818,
        0.055103372782468796,
        0.4549980163574219
      ],
      "min": [
        -0.24069060385227203,
        -0.06030382588505745,
        0.3125455677509308
      ],
      "type": "VEC3"
    },
    {
      "bufferView": 2,
      "byteOffset": 11795760,
      "componentType": 5126,
      "count": 65532,
      "max": [
        0.9999905824661255,
        0.99978107213974,
        0.9999645948410034
      ],
      "min": [
        -0.9978213906288147,
        -0.9999752640724182,
        -0.9988162517547607
      ],
      "type": "VEC3"
    },
    {
      "bufferView": 1,
      "byteOffset": 3669792,
      "componentType": 5126,
      "count": 65532,
      "max": [
        0.7160859704017639,
        0.8698980212211609
      ],
      "min": [
        0.0021520000882446766,
        0.023432016372680664
      ],
      "type": "VEC2"
    },
    {
      "bufferView": 0,
      "byteOffset": 9269604,
      "componentType": 5125,
      "count": 344637,
      "type": "SCALAR"
    },
    {
      "bufferView": 2,
      "byteOffset": 12582144,
      "componentType": 5126,
      "count": 53110,
      "max": [
        -0.13757559657096863,
        0.06585536152124405,
        0.3504769802093506
      ],
      "min": [
        -0.2073885053396225,
        -0.049879349768161774,
        0.2887895405292511
      ],
      "type": "VEC3"
    },
    {
      "bufferView": 2,
      "byteOffset": 13219464,
      "componentType": 5126,
      "count": 53110,
      "max": [
        0.9999927282333374,
        0.9999674558639526,
        0.9999423027038574
      ],
      "min": [
        -0.9980924725532532,
        -0.9999077320098877,
        -0.9987344145774841
      ],
      "type": "VEC3"
    },
    {
      "bufferView": 1,
      "byteOffset": 4194048,
      "componentType": 5126,
      "count": 53110,
      "max": [
        0.9395589828491211,
        0.9870370030403137
      ],
      "min": [
        0.0,
        0.024509012699127197
      ],
      "type": "VEC2"
    },
    {
      "bufferView": 0,
      "byteOffset": 10648152,
      "componentType": 5125,
      "count": 271038,
      "type": "SCALAR"
    }
  ],
  "asset": {
    "extras": {
      "author": "Igor Denisov (https://sketchfab.com/Digor)",
      "license": "CC-BY-4.0 (http://creativecommons.org/licenses/by/4.0/)",
      "source": "https://sketchfab.com/3d-models/persepolis-03-53e49c2d3b6d465fa77604af470db919",
      "title": "Persepolis 03"
    },
    "generator": "Sketchfab-12.67.0",
    "version": "2.0"
  },
  "bufferViews": [
    {
      "buffer": 0,
      "byteLength": 11732304,
      "name": "floatBufferViews",
      "target": 34963
    },
    {
      "buffer": 0,
      "byteLength": 4618928,
      "byteOffset": 11732304,
      "byteStride": 8,
      "name": "floatBufferViews",
      "target": 34962
    },
    {
      "buffer": 0,
      "byteLength": 13856784,
      "byteOffset": 16351232,
      "byteStride": 12,
      "name": "floatBufferViews",
      "target": 34962
    }
  ],
  "buffers": [
    {
      "byteLength": 30208016,
      "uri": "scene.bin"
    }
  ],
  "extensionsUsed": [
    "KHR_materials_unlit"
  ],
  "images": [
    {
      "uri": "textures/material_0_baseColor.jpeg"
    }
  ],
  "materials": [
    {
      "extensions": {
        "KHR_materials_unlit": {}
      },
      "name": "material_0",
      "pbrMetallicRoughness": {
        "baseColorTexture": {
          "index": 0
        },
        "metallicFactor": 0.0
      }
    }
  ],
  "meshes": [
    {
      "name": "Object_0",
      "primitives": [
        {
          "attributes": {
            "NORMAL": 1,
            "POSITION": 0,
            "TEXCOORD_0": 2
          },
          "indices": 3,
          "material": 0,
          "mode": 4
        }
      ]
    },
    {
      "name": "Object_1",
      "primitives": [
        {
          "attributes": {
            "NORMAL": 5,
            "POSITION": 4,
            "TEXCOORD_0": 6
          },
          "indices": 7,
          "material": 0,
          "mode": 4
        }
      ]
    },
    {
      "name": "Object_2",
      "primitives": [
        {
          "attributes": {
            "NORMAL": 9,
            "POSITION": 8,
            "TEXCOORD_0": 10
          },
          "indices": 11,
          "material": 0,
          "mode": 4
        }
      ]
    },
    {
      "name": "Object_3",
      "primitives": [
        {
          "attributes": {
            "NORMAL": 13,
            "POSITION": 12,
            "TEXCOORD_0": 14
          },
          "indices": 15,
          "material": 0,
          "mode": 4
        }
      ]
    },
    {
      "name": "Object_4",
      "primitives": [
        {
          "attributes": {
            "NORMAL": 17,
            "POSITION": 16,
            "TEXCOORD_0": 18
          },
          "indices": 19,
          "material": 0,
          "mode": 4
        }
      ]
    },
    {
      "name": "Object_5",
      "primitives": [
        {
          "attributes": {
            "NORMAL": 21,
            "POSITION": 20,
            "TEXCOORD_0": 22
          },
          "indices": 23,
          "material": 0,
          "mode": 4
        }
      ]
    },
    {
      "name": "Object_6",
      "primitives": [
        {
          "attributes": {
            "NORMAL": 25,
            "POSITION": 24,
            "TEXCOORD_0": 26
          },
          "indices": 27,
          "material": 0,
          "mode": 4
        }
      ]
    },
    {
      "name": "Object_7",
      "primitives": [
        {
          "attributes": {
            "NORMAL": 29,
            "POSITION": 28,
            "TEXCOORD_0": 30
          },
          "indices": 31,
          "material": 0,
          "mode": 4
        }
      ]
    },
    {
      "name": "Object_8",
      "primitives": [
        {
          "attributes": {
            "NORMAL": 33,
            "POSITION": 32,
            "TEXCOORD_0": 34
          },
          "indices": 35,
          "material": 0,
          "mode": 4
        }
      ]
    }
  ],
  "nodes": [
    {
      "children": [
        1
      ],
      "matrix": [
        1.0,
        0.0,
        0.0,
        0.0,
        0.0,
        2.220446049250313e-16,
        -1.0,
        0.0,
        0.0,
        1.0,
        2.220446049250313e-16,
        0.0,
        0.0,
        0.0,
        0.0,
        1.0
      ],
      "name": "Sketchfab_model"
    },
    {
      "children": [
        2
      ],
      "name": "root"
    },
    {
      "children": [
        3
      ],
      "matrix": [
        1.0,
        0.0,
        0.0,
        0.0,
        0.0,
        2.220446049250313e-16,
        1.0,
        0.0,
        0.0,
        -1.0,
        2.220446049250313e-16,
        0.0,
        0.0,
        0.0,
        0.0,
        1.0
      ],
      "name": "GLTF_SceneRootNode"
    },
    {
      "children": [
        4,
        5,
        6,
        7,
        8,
        9,
        10,
        11,
        12
      ],
      "matrix": [
        0.5622404217720032,
        -0.6122318506240845,
        0.5559229850769043,
        0.0,
        0.31266143918037415,
        0.7797179222106934,
        0.5424813032150269,
        0.0,
        -0.7655907273292542,
        -0.13119517266750336,
        0.629808783531189,
        0.0,
        0.17274194955825806,
        0.1332470178604126,
        -0.13938011229038239,
        1.0
      ],
      "name": "_0"
    },
    {
      "mesh": 0,
      "name": "Object_4"
    },
    {
      "mesh": 1,
      "name": "Object_5"
    },
    {
      "mesh": 2,
      "name": "Object_6"
    },
    {
      "mesh": 3,
      "name": "Object_7"
    },
    {
      "mesh": 4,
      "name": "Object_8"
    },
    {
      "mesh": 5,
      "name": "Object_9"
    },
    {
      "mesh": 6,
      "name": "Object_10"
    },
    {
      "mesh": 7,
      "name": "Object_11"
    },
    {
      "mesh": 8,
      "name": "Object_12"
    }
  ],
  "samplers": [
    {
      "magFilter": 9729,
      "minFilter": 9987,
      "wrapS": 10497,
      "wrapT": 10497
    }
  ],
  "scene": 0,
  "scenes": [
    {
      "name": "Sketchfab_Scene",
      "nodes": [
        0
      ]
    }
  ],
  "textures": [
    {
      "sampler": 0,
      "source": 0
    }
  ]
}
