{
  "accessors": [
    {
      "bufferView": 2,
      "componentType": 5126,
      "count": 22310,
      "max": [
        213.3043975830078,
        675.8455200195313,
        1599.4085693359375
      ],
      "min": [
        -213.30430603027344,
        -1115.604736328125,
        0.27090001106262207
      ],
      "type": "VEC3"
    },
    {
      "bufferView": 2,
      "byteOffset": 267720,
      "componentType": 5126,
      "count": 22310,
      "max": [
        0.9999995231628418,
        0.9999985694885254,
        0.9999808073043823
      ],
      "min": [
        -0.9999995231628418,
        -0.9999610185623169,
        -1.0
      ],
      "type": "VEC3"
    },
    {
      "bufferView": 1,
      "componentType": 5126,
      "count": 22310,
      "max": [
        0.9926000237464905,
        0.9894999861717224
      ],
      "min": [
        0.002899999963119626,
        0.007499999832361937
      ],
      "type": "VEC2"
    },
    {
      "bufferView": 0,
      "componentType": 5125,
      "count": 126768,
      "type": "SCALAR"
    }
  ],
  "asset": {
    "extras": {
      "author": "Empire (https://sketchfab.com/empire2ofearth)",
      "license": "CC-BY-4.0 (http://creativecommons.org/licenses/by/4.0/)",
      "source": "https://sketchfab.com/3d-models/horse-3d-model-free-8a3c6ad71e0d4b74b282713c7116d12e",
      "title": "Horse 3D Model (FREE)"
    },
    "generator": "Sketchfab-14.35.0",
    "version": "2.0"
  },
  "bufferViews": [
    {
      "buffer": 0,
      "byteLength": 507072,
      "name": "floatBufferViews",
      "target": 34963
    },
    {
      "buffer": 0,
      "byteLength": 178480,
      "byteOffset": 507072,
      "byteStride": 8,
      "name": "floatBufferViews",
      "target": 34962
    },
    {
      "buffer": 0,
      "byteLength": 535440,
      "byteOffset": 685552,
      "byteStride": 12,
      "name": "floatBufferViews",
      "target": 34962
    }
  ],
  "buffers": [
    {
      "byteLength": 1220992,
      "uri": "scene.bin"
    }
  ],
  "extensionsUsed": [
    "KHR_materials_unlit"
  ],
  "images": [
    {
      "uri": "textures/13___Default_baseColor.jpeg"
    }
  ],
  "materials": [
    {
      "doubleSided": true,
      "extensions": {
        "KHR_materials_unlit": {}
      },
      "name": "13___Default",
      "pbrMetallicRoughness": {
        "baseColorTexture": {
          "index": 0
        },
        "metallicFactor": 0.0
      }
    }
  ],
  "meshes": [
    {
      "name": "10026_Horse_v01-it2_13___Default_0",
      "primitives": [
        {
          "attributes": {
            "NORMAL": 1,
            "POSITION": 0,
            "TEXCOORD_0": 2
          },
          "indices": 3,
          "material": 0,
          "mode": 4
        }
      ]
    }
  ],
  "nodes": [
    {
      "children": [
        1
      ],
      "matrix": [
        1.0,
        0.0,
        0.0,
        0.0,
        0.0,
        2.220446049250313e-16,
        -1.0,
        0.0,
        0.0,
        1.0,
        2.220446049250313e-16,
        0.0,
        0.0,
        0.0,
        0.0,
        1.0
      ],
      "name": "Sketchfab_model"
    },
    {
      "children": [
        2
      ],
      "matrix": [
        0.009999999776482582,
        0.0,
        0.0,
        0.0,
        0.0,
        0.0,
        0.009999999776482582,
        0.0,
        0.0,
        -0.009999999776482582,
        0.0,
        0.0,
        0.0,
        0.0,
        0.0,
        1.0
      ],
      "name": "c8c6f56a24db4d989befd07bbfebf664.fbx"
    },
    {
      "children": [
        3
      ],
      "name": "RootNode"
    },
    {
      "children": [
        4
      ],
      "matrix": [
        -0.4845016598701477,
        -0.0,
        -0.0,
        -0.0,
        -0.0,
        7.893533959251449e-08,
        -0.4845016598701413,
        -0.0,
        -0.0,
        0.4845016598701413,
        7.893533959251449e-08,
        -0.0,
        0.0,
        0.0,
        0.0,
        1.0
      ],
      "name": "10026_Horse_v01-it2"
    },
    {
      "mesh": 0,
      "name": "10026_Horse_v01-it2_13___Default_0"
    }
  ],
  "samplers": [
    {
      "magFilter": 9729,
      "minFilter": 9987,
      "wrapS": 10497,
      "wrapT": 10497
    }
  ],
  "scene": 0,
  "scenes": [
    {
      "name": "Sketchfab_Scene",
      "nodes": [
        0
      ]
    }
  ],
  "textures": [
    {
      "sampler": 0,
      "source": 0
    }
  ]
}
